<svg width="31" height="31" viewBox="0 0 31 31" fill="none" xmlns="http://www.w3.org/2000/svg">
<path d="M24.6063 6.34207C23.4219 5.14613 22.0113 4.19786 20.4568 3.55254C18.9022 2.90722 17.2348 2.57775 15.5517 2.58332C8.49917 2.58332 2.75125 8.33124 2.75125 15.3837C2.75125 17.6442 3.34542 19.84 4.45625 21.7775L2.64792 28.4167L9.42917 26.6342C11.3021 27.6546 13.4075 28.1971 15.5517 28.1971C22.6042 28.1971 28.3521 22.4492 28.3521 15.3967C28.3521 11.9737 27.0217 8.75749 24.6063 6.34207ZM15.5517 26.0271C13.64 26.0271 11.7671 25.5104 10.1267 24.5417L9.73917 24.3092L5.70917 25.3683L6.78125 21.4417L6.52292 21.0412C5.46058 19.3454 4.89661 17.3849 4.89542 15.3837C4.89542 9.51957 9.67458 4.7404 15.5388 4.7404C18.3804 4.7404 21.0542 5.85124 23.0563 7.86624C24.0478 8.85289 24.8335 10.0266 25.3678 11.3193C25.9022 12.612 26.1746 13.9979 26.1692 15.3967C26.195 21.2608 21.4158 26.0271 15.5517 26.0271ZM21.39 18.0704C21.0671 17.9154 19.4913 17.1404 19.2071 17.0242C18.91 16.9208 18.7033 16.8692 18.4838 17.1792C18.2642 17.5021 17.6571 18.2254 17.4763 18.4321C17.2954 18.6517 17.1017 18.6775 16.7788 18.5096C16.4558 18.3546 15.4225 18.0058 14.2083 16.9208C13.2525 16.0683 12.6196 15.0221 12.4258 14.6992C12.245 14.3762 12.4 14.2083 12.5679 14.0404C12.71 13.8983 12.8908 13.6658 13.0458 13.485C13.2008 13.3042 13.2654 13.1621 13.3688 12.9554C13.4721 12.7358 13.4204 12.555 13.3429 12.4C13.2654 12.245 12.6196 10.6692 12.3613 10.0233C12.1029 9.40332 11.8317 9.48082 11.6379 9.4679H11.0179C10.7983 9.4679 10.4625 9.5454 10.1654 9.86832C9.88125 10.1912 9.05459 10.9662 9.05459 12.5421C9.05459 14.1179 10.2042 15.6421 10.3592 15.8487C10.5142 16.0683 12.6196 19.2975 15.8229 20.6796C16.585 21.0154 17.1792 21.2092 17.6442 21.3512C18.4063 21.5967 19.1038 21.5579 19.6592 21.4804C20.2792 21.39 21.5579 20.7054 21.8162 19.9562C22.0875 19.2071 22.0875 18.5742 21.9971 18.4321C21.9067 18.29 21.7129 18.2254 21.39 18.0704Z" fill="white"/>
</svg>
