<svg width="30" height="30" viewBox="0 0 30 30" fill="none" xmlns="http://www.w3.org/2000/svg">
<path d="M7.32 8.54997C7.1772 8.47295 7.01685 8.43432 6.85464 8.43784C6.69243 8.44137 6.53391 8.48693 6.39459 8.57007C6.25526 8.65321 6.1399 8.77109 6.05978 8.91217C5.97966 9.05326 5.93753 9.21272 5.9375 9.37497V21.25C5.9375 21.4986 6.03627 21.7371 6.21209 21.9129C6.3879 22.0887 6.62636 22.1875 6.875 22.1875C7.12364 22.1875 7.3621 22.0887 7.53791 21.9129C7.71373 21.7371 7.8125 21.4986 7.8125 21.25V10.945L14.555 14.575C14.8325 14.725 15.1675 14.725 15.445 14.575L22.1875 10.945V21.25C22.1875 21.4986 22.2863 21.7371 22.4621 21.9129C22.6379 22.0887 22.8764 22.1875 23.125 22.1875C23.3736 22.1875 23.6121 22.0887 23.7879 21.9129C23.9637 21.7371 24.0625 21.4986 24.0625 21.25V9.37497C24.0625 9.21272 24.0203 9.05326 23.9402 8.91217C23.8601 8.77109 23.7447 8.65321 23.6054 8.57007C23.4661 8.48693 23.3076 8.44137 23.1454 8.43784C22.9832 8.43432 22.8228 8.47295 22.68 8.54997L15 12.685L7.32 8.54997Z" fill="white"/>
<path fill-rule="evenodd" clip-rule="evenodd" d="M21.6375 4.65247C17.2213 4.25744 12.7787 4.25744 8.36253 4.65247L6.46503 4.82122C5.47664 4.90948 4.54685 5.32832 3.82583 6.01011C3.10481 6.69189 2.63465 7.59681 2.49128 8.57872C1.86855 12.8369 1.86855 17.163 2.49128 21.4212C2.63496 22.4031 3.10542 23.3079 3.82667 23.9894C4.54792 24.671 5.47785 25.0895 6.46628 25.1775L8.36128 25.3475C12.7788 25.7425 17.2213 25.7425 21.6388 25.3475L23.535 25.1775C24.5232 25.0893 25.4529 24.6706 26.1739 23.9891C26.8949 23.3075 27.3652 22.4029 27.5088 21.4212C28.1315 17.163 28.1315 12.8369 27.5088 8.57872C27.3654 7.59662 26.895 6.69155 26.1737 6.00974C25.4525 5.32794 24.5224 4.90921 23.5338 4.82122L21.6375 4.65247ZM8.53003 6.51997C12.8356 6.13412 17.167 6.13412 21.4725 6.51997L23.3688 6.68997C23.9372 6.74046 24.4721 6.9811 24.8869 7.37303C25.3018 7.76496 25.5724 8.28529 25.655 8.84997C26.2515 12.9283 26.2515 17.0717 25.655 21.15C25.5724 21.7147 25.3018 22.235 24.8869 22.6269C24.4721 23.0188 23.9372 23.2595 23.3688 23.31L21.4725 23.48C17.1675 23.865 12.835 23.865 8.53003 23.48L6.63378 23.31C6.06532 23.2595 5.53047 23.0188 5.11564 22.6269C4.7008 22.235 4.43019 21.7147 4.34753 21.15C3.7511 17.0717 3.7511 12.9283 4.34753 8.84997C4.43019 8.28529 4.7008 7.76496 5.11564 7.37303C5.53047 6.9811 6.06532 6.74046 6.63378 6.68997L8.53003 6.51997Z" fill="white"/>
</svg>
